<svg width="194" height="128" viewBox="0 0 194 128" fill="none" xmlns="http://www.w3.org/2000/svg">
<rect x="32.2227" y="17.9984" width="106.228" height="95.284" rx="4.64057" fill="#D2EEFF"/>
<rect x="17.3503" y="17.9984" width="102.687" height="95.284" rx="4.64057" fill="#E8F6FF"/>
<rect x="30.0981" y="27.1732" width="82.8579" height="76.933" rx="4.64057" fill="#5EC1FF"/>
<rect x="27.2649" y="27.1732" width="82.8579" height="76.933" rx="4.64057" fill="#A8DEFF"/>
<rect x="25.8489" y="41.2902" width="5.6655" height="12.7045" rx="1.74021" fill="#73CAFF"/>
<rect x="24.4326" y="41.2902" width="5.6655" height="12.7045" rx="1.74021" fill="#95D7FF"/>
<rect x="25.8489" y="75.8746" width="5.6655" height="12.7045" rx="1.74021" fill="#73CAFF"/>
<rect x="24.4326" y="75.8746" width="5.6655" height="12.7045" rx="1.74021" fill="#95D7FF"/>
<path fill-rule="evenodd" clip-rule="evenodd" d="M93.4811 75.8744C99.1524 75.8744 103.75 71.2924 103.75 65.6402C103.75 59.988 99.1524 55.406 93.4811 55.406C87.8099 55.406 83.2124 59.988 83.2124 65.6402C83.2124 71.2924 87.8099 75.8744 93.4811 75.8744Z" fill="#EDEDED"/>
<path fill-rule="evenodd" clip-rule="evenodd" d="M91.3561 75.8744C97.0274 75.8744 101.625 71.2924 101.625 65.6402C101.625 59.988 97.0274 55.406 91.3561 55.406C85.6849 55.406 81.0874 59.988 81.0874 65.6402C81.0874 71.2924 85.6849 75.8744 91.3561 75.8744Z" fill="white"/>
<path fill-rule="evenodd" clip-rule="evenodd" d="M92.0643 70.9335C94.9977 70.9335 97.3757 68.5635 97.3757 65.64C97.3757 62.7164 94.9977 60.3464 92.0643 60.3464C89.1309 60.3464 86.7529 62.7164 86.7529 65.64C86.7529 68.5635 89.1309 70.9335 92.0643 70.9335Z" fill="#73CAFF"/>
<path fill-rule="evenodd" clip-rule="evenodd" d="M90.6481 70.9335C93.5815 70.9335 95.9595 68.5635 95.9595 65.64C95.9595 62.7164 93.5815 60.3464 90.6481 60.3464C87.7147 60.3464 85.3367 62.7164 85.3367 65.64C85.3367 68.5635 87.7147 70.9335 90.6481 70.9335Z" fill="#95D7FF"/>
<path d="M175.895 118.209C175.895 117.235 176.688 116.445 177.666 116.445C178.644 116.445 179.436 117.235 179.436 118.209V126.235C179.436 127.21 178.644 128 177.666 128C176.688 128 175.895 127.21 175.895 126.235V118.209Z" fill="#FCC10C"/>
<path d="M174.479 118.209C174.479 117.235 175.271 116.445 176.249 116.445C177.227 116.445 178.02 117.235 178.02 118.209V126.235C178.02 127.21 177.227 128 176.249 128C175.271 128 174.479 127.21 174.479 126.235V118.209Z" fill="#FFDA68"/>
<path d="M173.517 124.208C172.561 124.208 171.787 123.418 171.787 122.444C171.787 121.469 172.561 120.679 173.517 120.679H181.387C182.343 120.679 183.118 121.469 183.118 122.444C183.118 123.418 182.343 124.208 181.387 124.208H173.517Z" fill="#FCC10C"/>
<path d="M172.1 124.208C171.145 124.208 170.37 123.418 170.37 122.444C170.37 121.469 171.145 120.679 172.1 120.679H179.971C180.926 120.679 181.701 121.469 181.701 122.444C181.701 123.418 180.926 124.208 179.971 124.208H172.1Z" fill="#FFDA68"/>
<path d="M5.52498 1.76452C5.52498 0.790002 6.31765 0 7.29545 0C8.27325 0 9.06592 0.790002 9.06592 1.76452L9.06592 9.79073C9.06592 10.7652 8.27325 11.5552 7.29545 11.5552C6.31765 11.5552 5.52498 10.7652 5.52498 9.79073L5.52498 1.76452Z" fill="#FCC10C"/>
<path d="M4.10897 1.76452C4.10897 0.790002 4.90163 0 5.87943 0C6.85724 0 7.6499 0.790002 7.6499 1.76452L7.6499 9.79073C7.6499 10.7652 6.85724 11.5552 5.87943 11.5552C4.90163 11.5552 4.10897 10.7652 4.10897 9.79073L4.10897 1.76452Z" fill="#FFDA68"/>
<path d="M3.14629 7.76427C2.19069 7.76427 1.41602 6.97426 1.41602 5.99975C1.41602 5.02523 2.19069 4.23523 3.14629 4.23523H11.0167C11.9723 4.23523 12.747 5.02523 12.747 5.99975C12.747 6.97426 11.9723 7.76427 11.0167 7.76427H3.14629Z" fill="#FCC10C"/>
<path d="M1.73027 7.76427C0.77467 7.76427 0 6.97426 0 5.99975C0 5.02523 0.77467 4.23523 1.73027 4.23523H9.60072C10.5563 4.23523 11.331 5.02523 11.331 5.99975C11.331 6.97426 10.5563 7.76427 9.60072 7.76427H1.73027Z" fill="#FFDA68"/>
<path d="M130.495 95.9043L134.689 111.531C135.902 116.051 139.999 119.194 144.679 119.194H157.256C161.957 119.194 166.066 116.025 167.261 111.479L171.355 95.9043H130.495Z" fill="#FEE69D"/>
<path d="M144.019 87.3244C144.019 87.3244 123.974 49.1736 136.633 36.3265C149.293 23.4794 156.497 36.0962 156.497 48.2845C156.497 60.4727 149.594 87.3244 149.594 87.3244H144.019Z" fill="#32E6BF"/>
<path d="M149.068 87.3245C149.068 87.3245 152.053 44.3379 165.627 47.0339C179.201 49.7298 169.415 73.8357 165.627 79.082C161.839 84.3283 158.298 87.3245 158.298 87.3245H149.068Z" fill="#36F0C7"/>
<path d="M156.108 87.3242C156.108 87.3242 171.476 57.6853 177.115 65.7661C182.754 73.8469 163.55 87.3242 163.55 87.3242H156.108Z" fill="#53F4D0"/>
<path d="M146.591 87.3249C146.591 87.3249 137.181 45.376 125.546 58.6431C113.912 71.9101 138.678 87.3249 138.678 87.3249H146.591Z" fill="#53F4D0"/>
<path d="M135.919 86.0986C131.338 86.0986 128.031 90.4819 129.287 94.8866L129.578 95.9047H171.617L171.835 95.2846C173.414 90.7988 170.086 86.0986 165.33 86.0986H135.919Z" fill="#FAD668"/>
</svg>
