<svg width="91" height="128" viewBox="0 0 91 128" fill="none" xmlns="http://www.w3.org/2000/svg">
<path fill-rule="evenodd" clip-rule="evenodd" d="M6.10122 3.22332L68.4019 0.00867188C71.7608 -0.164648 74.6862 2.27929 75.1131 5.61554L88.3648 109.172C88.7949 112.533 86.5439 115.651 83.2186 116.301L23.9681 127.879C20.4818 128.561 17.1034 126.287 16.4221 122.801C16.4022 122.699 16.3848 122.597 16.3698 122.494L0.0680017 10.5736C-0.443992 7.05854 1.9905 3.79393 5.5056 3.28194C5.70312 3.25317 5.90188 3.23361 6.10122 3.22332Z" fill="url(#paint0_linear)"/>
<path fill-rule="evenodd" clip-rule="evenodd" d="M8.24526 3.22332L70.5459 0.00867188C73.9049 -0.164648 76.8302 2.27929 77.2571 5.61554L90.5089 109.172C90.9389 112.533 88.688 115.651 85.3626 116.301L26.1121 127.879C22.6259 128.561 19.2474 126.287 18.5661 122.801C18.5462 122.699 18.5288 122.597 18.5139 122.494L2.21204 10.5736C1.70005 7.05854 4.13455 3.79393 7.64965 3.28194C7.84717 3.25317 8.04592 3.23361 8.24526 3.22332Z" fill="#FFDA68"/>
<path d="M16.374 21.528L49.605 19.384" stroke="white" stroke-width="2" stroke-linecap="round"/>
<path d="M16.374 32.2476L69.9724 27.9597" stroke="white" stroke-width="2" stroke-linecap="round"/>
<path d="M18.5178 46.1833L65.6844 41.8954" stroke="white" stroke-width="2" stroke-linecap="round"/>
<path d="M19.5898 61.1907L74.2602 54.7589" stroke="white" stroke-width="2" stroke-linecap="round"/>
<path d="M20.6619 74.0544L77.4762 67.6226" stroke="white" stroke-width="2" stroke-linecap="round"/>
<path d="M23.8777 89.062L82.8359 81.5582" stroke="white" stroke-width="2" stroke-linecap="round"/>
<path d="M26.0217 106.213L82.836 97.6377" stroke="white" stroke-width="2" stroke-linecap="round"/>
<path d="M50.5115 63.949L53.9309 76.6329" stroke="#004F81" stroke-width="1.11357" stroke-linecap="round"/>
<path d="M51.3987 63.8514C56.7374 61.4745 58.7648 54.3806 55.927 48.0068C53.0892 41.633 46.4608 38.393 41.1221 40.7699C35.7834 43.1468 33.7561 50.2407 36.5938 56.6145C39.4316 62.9883 46.06 66.2284 51.3987 63.8514Z" fill="white" fill-opacity="0.8" stroke="#004F81" stroke-width="1.39196"/>
<path fill-rule="evenodd" clip-rule="evenodd" d="M79.0014 123.569C78.5816 123.366 77.7293 123.427 76.4446 123.753C74.5175 124.243 73.9076 125.194 74.8073 125.648C75.707 126.101 77.3453 126.032 77.9264 126.115C78.5075 126.198 78.3567 126.629 79.9273 126.33C81.4979 126.032 80.8745 124.724 80.5167 123.569C80.2781 122.798 79.773 122.798 79.0014 123.569Z" fill="#400000"/>
<path fill-rule="evenodd" clip-rule="evenodd" d="M71.553 63.1507C71.553 65.434 71.553 66.7101 71.553 66.9789C71.553 67.382 73.6606 67.8571 74.2484 66.9789C74.6403 66.3934 74.8363 64.8521 74.8363 62.3549L71.553 63.1507Z" fill="#E29C9F"/>
<mask id="mask0" mask-type="alpha" maskUnits="userSpaceOnUse" x="67" y="53" width="11" height="12">
<path d="M71.273 54.219C69.3816 54.5448 66.7605 61.5747 68.5812 62.832C70.4018 64.0894 75.1448 64.6597 75.8833 63.4023C76.6217 62.1449 78.7934 57.7422 77.2313 55.5085C75.6693 53.2748 73.1643 53.8931 71.273 54.219Z" fill="white"/>
</mask>
<g mask="url(#mask0)">
<path d="M71.273 54.219C69.3816 54.5448 66.7605 61.5747 68.5812 62.832C70.4018 64.0894 75.1448 64.6597 75.8833 63.4023C76.6217 62.1449 78.7934 57.7422 77.2313 55.5085C75.6693 53.2748 73.1643 53.8931 71.273 54.219Z" fill="#EDAAAD"/>
<path fill-rule="evenodd" clip-rule="evenodd" d="M67.8118 62.9036C72.7176 63.0266 75.7362 62.3302 76.8675 60.8145C75.8868 63.7044 74.5978 65.1494 73.0006 65.1494C70.9122 64.7727 69.8255 64.5769 69.7402 64.5618C69.655 64.5467 69.0122 63.9939 67.8118 62.9036Z" fill="#E79DA0"/>
</g>
<path fill-rule="evenodd" clip-rule="evenodd" d="M68.8845 57.5594C67.8341 58.3058 67.2855 58.7901 67.2386 59.0126C67.1918 59.235 67.5537 59.4727 68.3243 59.7256L68.7546 59.3111L68.8845 57.5594Z" fill="#E29C9F"/>
<path d="M68.6439 58.9719C69.4805 58.9719 70.1586 58.3022 70.1586 57.4761C70.1586 56.65 69.4805 55.9803 68.6439 55.9803C67.8073 55.9803 67.1292 56.65 67.1292 57.4761C67.1292 58.3022 67.8073 58.9719 68.6439 58.9719Z" fill="white" fill-opacity="0.4" stroke="white" stroke-width="0.5"/>
<path fill-rule="evenodd" clip-rule="evenodd" d="M73.7658 58.4364C69.9646 57.6315 68.0555 56.7356 68.0383 55.7485C68.0126 54.2679 70.1843 50.0347 75.4369 50.5831C78.9686 50.9519 81.3688 52.1995 82.5702 56.5051C83.6593 60.4082 82.1876 62.8927 80.812 64.2679C79.4401 65.6392 77.2117 65.8419 75.4369 65.6392C71.472 65.1865 72.6676 63.473 72.8747 62.8653C73.0128 62.4602 73.3098 60.9839 73.7658 58.4364Z" fill="url(#paint1_linear)"/>
<mask id="mask1" mask-type="alpha" maskUnits="userSpaceOnUse" x="62" y="66" width="22" height="19">
<path d="M75.3185 66.2438C80.5105 66.8468 82.5262 68.9797 83.1522 72.5346C83.5696 74.9046 82.2524 78.8668 79.2006 84.4213C72.6617 85.0759 68.6999 84.8376 67.3151 83.7063C65.2379 82.0095 66.0912 82.253 63.3053 79.0631C61.4481 76.9365 62.3767 73.5754 66.0912 68.9797C68.7814 66.7538 71.8572 65.8419 75.3185 66.2438Z" fill="white"/>
</mask>
<g mask="url(#mask1)">
<path d="M75.3185 66.2438C80.5105 66.8468 82.5262 68.9797 83.1522 72.5346C83.5696 74.9046 82.2524 78.8668 79.2006 84.4213C72.6617 85.0759 68.6999 84.8376 67.3151 83.7063C65.2379 82.0095 66.0912 82.253 63.3053 79.0631C61.4481 76.9365 62.3767 73.5754 66.0912 68.9797C68.7814 66.7538 71.8572 65.8419 75.3185 66.2438Z" fill="url(#paint2_linear)"/>
<path fill-rule="evenodd" clip-rule="evenodd" d="M69.689 82.908C76.8007 79.1622 81.4245 74.4355 83.5604 68.728C86.2129 75.9459 87.3537 80.4736 86.9827 82.3112C83.4229 85.1976 81.4859 86.6717 81.1717 86.7336C80.8575 86.7956 77.0299 85.5204 69.689 82.908Z" fill="#F56B42"/>
</g>
<path fill-rule="evenodd" clip-rule="evenodd" d="M79.4648 84.5995C81.9464 98.6364 82.7583 109.792 81.9006 118.067C81.7302 120.09 81.2901 121.918 80.5803 123.551C79.8857 123.755 79.1557 123.755 78.3903 123.551C77.2422 123.245 70.3563 107.413 72.4012 99.712C73.7645 94.578 76.119 89.5405 79.4648 84.5995Z" fill="#45D5FF"/>
<path fill-rule="evenodd" clip-rule="evenodd" d="M67.3208 123.531C66.6969 123.359 65.7426 123.436 64.4578 123.763C62.5307 124.252 62.1479 125.305 63.0476 125.759C63.9472 126.212 66.2181 126.035 66.7992 126.118C67.3803 126.201 67.5526 126.548 69.0919 126.326C70.6313 126.105 69.8641 124.352 69.5062 123.196C69.2677 122.426 68.5392 122.537 67.3208 123.531Z" fill="#400000"/>
<mask id="mask2" mask-type="alpha" maskUnits="userSpaceOnUse" x="61" y="82" width="21" height="42">
<path d="M66.3218 82.7127C61.5862 86.1244 60.0573 92.3823 61.735 101.487C64.2514 115.143 66.7743 123.218 67.2504 123.465C67.5678 123.63 68.3786 123.63 69.6827 123.465C72.9298 117.149 75.0684 112.386 76.0983 109.176C78.8476 103.351 81.4044 98.7827 81.7325 95.1209C82.5389 86.1184 80.5224 85.2616 79.3266 84.1305C79.1063 83.922 76.6164 82.6914 71.7318 82.7127C70.7883 82.7168 68.9849 82.7168 66.3218 82.7127Z" fill="white"/>
</mask>
<g mask="url(#mask2)">
<path d="M66.3218 82.7127C61.5862 86.1244 60.0573 92.3823 61.735 101.487C64.2514 115.143 66.7743 123.218 67.2504 123.465C67.5678 123.63 68.3786 123.63 69.6827 123.465C72.9298 117.149 75.0684 112.386 76.0983 109.176C78.8476 103.351 81.4044 98.7827 81.7325 95.1209C82.5389 86.1184 80.5224 85.2616 79.3266 84.1305C79.1063 83.922 76.6164 82.6914 71.7318 82.7127C70.7883 82.7168 68.9849 82.7168 66.3218 82.7127Z" fill="url(#paint3_linear)"/>
<path fill-rule="evenodd" clip-rule="evenodd" d="M68.5803 79.8059C74.7132 91.6066 77.3395 101.94 76.459 110.806C82.234 102.205 85.9431 95.0242 87.5864 89.2638L85.4933 76.9514L68.5803 79.8059Z" fill="url(#paint4_linear)"/>
</g>
<path fill-rule="evenodd" clip-rule="evenodd" d="M62.8187 71.0038L58.3437 73.7217C55.4583 72.3801 53.7231 70.8657 53.1382 69.1785C52.0664 69.3006 51.5305 69.5517 51.5305 69.9319C53.1607 75.4424 55.2605 78.0101 57.8298 77.635C61.6838 77.0723 64.5059 76.5097 66.0366 74.4102C67.0571 73.0104 65.9845 71.875 62.8187 71.0038Z" fill="#E29C9F"/>
<path fill-rule="evenodd" clip-rule="evenodd" d="M63.9747 69.5726C66.3208 68.0196 67.8933 68.1885 68.6923 70.0792C69.8907 72.9153 66.7714 75.3522 65.2726 75.6159C64.2734 75.7917 63.0299 74.3744 61.5422 71.3641L63.9747 69.5726Z" fill="url(#paint5_linear)"/>
<path fill-rule="evenodd" clip-rule="evenodd" d="M51.6223 70.0116C50.2924 68.9866 49.669 68.2238 49.7522 67.7233C49.8771 66.9725 51.878 65.8105 52.916 66.3889C53.608 66.7745 53.6852 67.7084 53.1475 69.1906L51.6223 70.0116Z" fill="#E29C9F"/>
<path fill-rule="evenodd" clip-rule="evenodd" d="M53.2127 66.4711C52.651 66.5884 52.469 67.3999 52.7431 67.6268C52.9259 67.7781 53.1536 67.9241 53.4263 68.0649C53.8065 67.4356 53.9801 67.0598 53.9469 66.9374C53.8972 66.7539 53.7743 66.3538 53.2127 66.4711Z" fill="#E29C9F"/>
<path fill-rule="evenodd" clip-rule="evenodd" d="M73.8084 69.0693C72.3039 67.2076 71.3775 66.3233 71.0292 66.4162C70.591 66.6143 70.1986 66.7673 69.8521 66.8751L73.2191 69.5932L73.8084 69.0693Z" fill="#553455"/>
<path fill-rule="evenodd" clip-rule="evenodd" d="M77.3079 68.246C77.8042 67.5609 77.9108 67.0282 77.6277 66.6479C78.1829 66.7996 78.6433 66.9592 79.0087 67.1268L78.1583 68.3982L77.3079 68.246Z" fill="#553455"/>
<mask id="mask3" mask-type="alpha" maskUnits="userSpaceOnUse" x="71" y="68" width="16" height="26">
<path d="M72.5949 71.4582C72.7728 69.8821 73.391 68.9916 74.4496 68.7865C76.0374 68.4789 80.1982 65.7436 84.8531 76.3422C87.9563 83.408 87.5037 88.262 83.4954 90.9043C76.2247 94.792 72.3602 94.0023 71.902 88.5354C71.4439 83.0684 71.6748 77.376 72.5949 71.4582Z" fill="white"/>
</mask>
<g mask="url(#mask3)">
<path d="M72.5949 71.4582C72.7728 69.8821 73.391 68.9916 74.4496 68.7865C76.0374 68.4789 80.1982 65.7436 84.8531 76.3422C87.9563 83.408 87.5037 88.262 83.4954 90.9043C76.2247 94.792 72.3602 94.0023 71.902 88.5354C71.4439 83.0684 71.6748 77.376 72.5949 71.4582Z" fill="#FF677D"/>
<path fill-rule="evenodd" clip-rule="evenodd" d="M70.5488 74.5288C76.6097 80.7544 81.7816 80.925 86.0645 75.0407C87.3956 70.2283 85.4899 66.8068 80.3473 64.7762L70.992 67.4824L68.6743 74.1625L70.5488 74.5288Z" fill="#F1576D"/>
</g>
<defs>
<linearGradient id="paint0_linear" x1="23.2077" y1="-36.3866" x2="51.5802" y2="144.321" gradientUnits="userSpaceOnUse">
<stop stop-color="#FE964F"/>
<stop offset="0.733884" stop-color="#FDD032"/>
<stop offset="1" stop-color="#FCC827"/>
</linearGradient>
<linearGradient id="paint1_linear" x1="75.4934" y1="50.5344" x2="75.4934" y2="65.7062" gradientUnits="userSpaceOnUse">
<stop stop-color="#F04962"/>
<stop offset="1" stop-color="#F97381"/>
</linearGradient>
<linearGradient id="paint2_linear" x1="65.3881" y1="65.168" x2="71.4315" y2="85.1949" gradientUnits="userSpaceOnUse">
<stop stop-color="#FF7D5C"/>
<stop offset="1" stop-color="#FF815A"/>
</linearGradient>
<linearGradient id="paint3_linear" x1="79.1089" y1="78.528" x2="49.6607" y2="109.361" gradientUnits="userSpaceOnUse">
<stop stop-color="#5BE4FF"/>
<stop offset="1" stop-color="#2EC5FF"/>
</linearGradient>
<linearGradient id="paint4_linear" x1="87.5864" y1="78.9313" x2="55.3742" y2="107.211" gradientUnits="userSpaceOnUse">
<stop stop-color="#50E0FC"/>
<stop offset="1" stop-color="#27BDF7"/>
</linearGradient>
<linearGradient id="paint5_linear" x1="65.2514" y1="68.5221" x2="65.2514" y2="75.6305" gradientUnits="userSpaceOnUse">
<stop stop-color="#FC774F"/>
<stop offset="1" stop-color="#F7815C"/>
</linearGradient>
</defs>
</svg>
