<svg width="82" height="24" viewBox="0 0 82 24" fill="none" xmlns="http://www.w3.org/2000/svg">
<mask id="mask0" mask-type="alpha" maskUnits="userSpaceOnUse" x="0" y="16" width="18" height="8">
<path d="M14.6372 16.6636C14.5134 16.7438 14.3975 16.8362 14.2908 16.9437C14.1862 17.049 14.1059 17.163 13.9942 17.278C9.32672 21.6607 5.23425 18.7729 3.79335 17.479C3.70851 17.3922 3.63256 17.3103 3.54609 17.2233C3.449 17.1255 3.34421 17.0403 3.23435 16.9658C2.42512 16.4189 1.3213 16.5046 0.607394 17.2233C-0.17719 18.013 -0.200858 19.2757 0.531638 20.0969C0.551812 20.1254 0.575293 20.1483 0.598589 20.1717C9.40713 28.9366 17.2751 19.9076 17.2751 19.9076C18.0867 19.0909 18.041 17.7605 17.2295 16.9437C16.8241 16.5355 16.2929 16.3317 15.7616 16.3317C15.3701 16.3317 14.9785 16.4423 14.6372 16.6636Z" fill="white"/>
</mask>
<g mask="url(#mask0)">
<path fill-rule="evenodd" clip-rule="evenodd" d="M-0.371094 24.3748H18.2291V15.9603H-0.371094V24.3748Z" fill="#FFD947"/>
</g>
<mask id="mask1" mask-type="alpha" maskUnits="userSpaceOnUse" x="0" y="0" width="18" height="8">
<path d="M0.717453 4.2266C-0.0939686 5.04335 -0.0939686 6.36785 0.717453 7.1846C1.42167 7.89349 2.50518 7.98619 3.30984 7.46474C3.43364 7.3845 3.54951 7.29208 3.65615 7.1846C3.76075 7.07933 3.87489 6.97985 3.98653 6.86479C8.65397 2.48215 12.6974 5.36306 14.1382 6.65693C14.2231 6.74399 14.3145 6.81797 14.401 6.90498C14.4981 7.00276 14.6028 7.08804 14.7127 7.16243C15.5219 7.70944 16.6257 7.6237 17.3396 6.90498C18.1242 6.11529 18.1479 4.85262 17.4154 4.03135C17.3952 4.00293 17.3718 3.98001 17.3484 3.95667C14.4715 1.09402 11.6992 0.130071 9.27092 0.129883C4.26407 0.129506 0.717453 4.2266 0.717453 4.2266Z" fill="white"/>
</mask>
<g mask="url(#mask1)">
<path fill-rule="evenodd" clip-rule="evenodd" d="M-0.263184 8.16841H18.3137V-0.244507H-0.263184V8.16841Z" fill="#11FAC7"/>
</g>
<mask id="mask2" mask-type="alpha" maskUnits="userSpaceOnUse" x="0" y="3" width="18" height="18">
<path d="M2.3109 3.53137C1.72516 3.53137 1.14059 3.76485 0.711166 4.22668C-0.10962 5.10954 -0.0633551 6.51598 0.813619 7.34227C2.51664 9.37756 2.60931 9.90477 7.04487 13.4768C12.4625 17.8395 12.8641 18.4611 14.257 20.0084C15.1362 20.8369 16.5289 20.7905 17.3518 19.9052C18.1747 19.0202 18.1286 17.6181 17.2493 16.7898C15.1251 14.6141 15.0529 14.1982 10.4762 10.6569C10.4166 10.6107 10.3537 10.5612 10.2964 10.5123C5.44607 6.38933 5.79522 6.40063 3.80594 4.12352C3.38551 3.72748 2.84781 3.53137 2.31109 3.53137C2.31099 3.53137 2.31099 3.53137 2.3109 3.53137Z" fill="white"/>
</mask>
<g mask="url(#mask2)">
<path fill-rule="evenodd" clip-rule="evenodd" d="M-0.24707 20.9776H18.3073V3.16211H-0.24707V20.9776Z" fill="#5EC1FF"/>
</g>
<mask id="mask3" mask-type="alpha" maskUnits="userSpaceOnUse" x="12" y="16" width="6" height="5">
<path d="M14.7339 16.633C14.7337 16.6328 14.7337 16.6327 14.7337 16.6327C14.733 16.633 14.7326 16.6335 14.7319 16.6342C14.6101 16.7132 14.4944 16.8056 14.3876 16.9131C14.2829 17.0184 14.2026 17.1324 14.091 17.2474C13.58 17.7271 13.1961 18.0319 12.7017 18.3491L14.2563 20.0096C15.1264 20.8294 16.4976 20.7895 17.3234 19.9309C17.3553 19.8962 17.372 19.8771 17.372 19.8771C17.3822 19.8668 17.3886 19.8545 17.3985 19.844C17.8712 19.2975 18.0344 18.5751 17.8848 17.9092C17.8831 17.9032 17.8809 17.8974 17.8793 17.8915C17.8546 17.7863 17.8176 17.6842 17.7778 17.5831C17.6723 17.3397 17.5229 17.1108 17.3263 16.9131C16.9208 16.505 16.3895 16.3011 15.8582 16.301C15.4667 16.301 15.0752 16.4117 14.7339 16.633Z" fill="white"/>
</mask>
<g mask="url(#mask3)">
<path fill-rule="evenodd" clip-rule="evenodd" d="M12.3315 20.9708H18.3071V15.9253H12.3315V20.9708Z" fill="#4B5FFA"/>
</g>
<mask id="mask4" mask-type="alpha" maskUnits="userSpaceOnUse" x="0" y="3" width="6" height="5">
<path d="M0.711132 4.20967C0.703605 4.21813 0.698415 4.22401 0.698415 4.22401C0.672046 4.25029 0.653999 4.28127 0.629407 4.30867C0.174918 4.84407 0.0154421 5.5418 0.152523 6.19082C0.167858 6.25447 0.186887 6.31714 0.2083 6.37933C0.221484 6.42239 0.234809 6.46498 0.250518 6.5071C0.352206 6.75118 0.500321 6.98054 0.698415 7.17902C1.40509 7.88718 2.49234 7.97979 3.29982 7.45887C3.42404 7.37863 3.54036 7.2863 3.64734 7.17902C3.7523 7.07386 3.86684 6.97448 3.97891 6.85954C4.48357 6.3877 4.76801 6.14531 5.25579 5.83086L3.79746 4.12345C3.37612 3.72833 2.83757 3.53296 2.29995 3.53296C1.71984 3.53291 1.14084 3.76035 0.711132 4.20967Z" fill="white"/>
</mask>
<g mask="url(#mask4)">
<path fill-rule="evenodd" clip-rule="evenodd" d="M-0.245117 8.20092H5.63501V3.19287H-0.245117V8.20092Z" fill="#F7578C"/>
</g>
<mask id="mask5" mask-type="alpha" maskUnits="userSpaceOnUse" x="22" y="8" width="15" height="16">
<path d="M22.2977 15.1105C22.2977 15.1626 22.302 15.2139 22.3032 15.2659V21.8946C22.3017 21.9259 22.2939 21.9553 22.2939 21.987C22.2939 23.0492 23.1493 23.9102 24.2047 23.9102C25.2599 23.9102 26.1153 23.0492 26.1153 21.987C26.1153 21.9602 26.1086 21.9355 26.1076 21.9091H26.1133V15.2278H26.1129V15.0497C26.1129 13.2687 27.5606 11.8117 29.3298 11.8117C31.0991 11.8117 32.5466 13.2687 32.5466 15.0497V19.5039C32.5466 19.5141 32.5452 19.524 32.5452 19.5341V21.3729C32.5458 21.3725 32.5463 21.3721 32.5471 21.3718V21.9091H32.5594C32.5582 21.9375 32.5509 21.9642 32.5509 21.993C32.5509 23.0552 33.4065 23.9163 34.4617 23.9163C35.517 23.9163 36.3725 23.0552 36.3725 21.993C36.3725 21.941 36.3613 21.8921 36.3573 21.841V15.2278H36.329C36.3298 15.1885 36.3332 15.1499 36.3332 15.1105C36.3332 11.2089 33.1912 8.04639 29.3155 8.04639C25.4397 8.04639 22.2977 11.2089 22.2977 15.1105Z" fill="white"/>
</mask>
<g mask="url(#mask5)">
<path fill-rule="evenodd" clip-rule="evenodd" d="M21.9233 24.293H36.7407V7.677H21.9233V24.293Z" fill="#5EC1FF"/>
</g>
<mask id="mask6" mask-type="alpha" maskUnits="userSpaceOnUse" x="22" y="0" width="5" height="24">
<path d="M22.2915 1.93387V21.9884C22.2915 23.0519 23.156 23.9223 24.2127 23.9223C25.2695 23.9223 26.1339 23.0519 26.1339 21.9884V1.93387C26.1339 0.870157 25.2695 0 24.2127 0C23.156 0 22.2915 0.870157 22.2915 1.93387Z" fill="white"/>
</mask>
<g mask="url(#mask6)">
<path fill-rule="evenodd" clip-rule="evenodd" d="M21.9209 24.2968H26.5021V-0.371582H21.9209V24.2968Z" fill="#5EC1FF"/>
</g>
<mask id="mask7" mask-type="alpha" maskUnits="userSpaceOnUse" x="22" y="8" width="5" height="16">
<path d="M22.2977 15.1134C22.2977 15.1658 22.3021 15.217 22.3032 15.2689V21.8977C22.3017 21.9289 22.2939 21.9583 22.2939 21.99C22.2939 23.0522 23.1495 23.9134 24.2048 23.9134C25.2601 23.9134 26.1155 23.0522 26.1155 21.99C26.1155 21.9632 26.1088 21.9385 26.1077 21.9121L26.1135 15.231L26.113 15.0528C26.113 14.9311 26.1213 14.8113 26.1344 14.6929V8.82251C23.8591 9.99078 22.2977 12.3661 22.2977 15.1134Z" fill="white"/>
</mask>
<g mask="url(#mask7)">
<path fill-rule="evenodd" clip-rule="evenodd" d="M21.9233 24.2845H26.5025V8.44751H21.9233V24.2845Z" fill="#4B5FFA"/>
</g>
<mask id="mask8" mask-type="alpha" maskUnits="userSpaceOnUse" x="40" y="0" width="5" height="5">
<path d="M40.709 2.51258V2.66994C40.709 3.7088 41.5849 4.59044 42.6795 4.59044C43.7117 4.59044 44.5874 3.7088 44.5874 2.66994V2.51258C44.5874 1.41056 43.7117 0.560547 42.6795 0.560547C41.5849 0.560547 40.709 1.41056 40.709 2.51258Z" fill="white"/>
</mask>
<g mask="url(#mask8)">
<path fill-rule="evenodd" clip-rule="evenodd" d="M40.3389 4.96692H44.9561V0.190918H40.3389V4.96692Z" fill="#FFD947"/>
</g>
<mask id="mask9" mask-type="alpha" maskUnits="userSpaceOnUse" x="40" y="7" width="5" height="17">
<path d="M40.709 9.84199V21.9943C40.709 23.0647 41.5849 23.9463 42.6795 23.9463C43.7117 23.9463 44.5874 23.0647 44.5874 21.9943V9.84199C44.5874 8.77146 43.7117 7.92163 42.6795 7.92163C41.5849 7.92163 40.709 8.77146 40.709 9.84199Z" fill="white"/>
</mask>
<g mask="url(#mask9)">
<path fill-rule="evenodd" clip-rule="evenodd" d="M40.3389 24.3174H44.9561V7.54663H40.3389V24.3174Z" fill="#FFD947"/>
</g>
<mask id="mask10" mask-type="alpha" maskUnits="userSpaceOnUse" x="48" y="7" width="5" height="8">
<path d="M48.9913 9.47237L48.9834 14.8469C49.1128 13.2753 49.8532 11.7051 50.8473 10.5429C51.4113 9.88343 52.0729 9.30889 52.8143 8.85167C52.5433 8.10843 51.824 7.5835 50.9736 7.5835C49.8835 7.5835 48.9913 8.43351 48.9913 9.47237Z" fill="white"/>
</mask>
<g mask="url(#mask10)">
<path fill-rule="evenodd" clip-rule="evenodd" d="M48.6143 15.2224H53.1839V7.21289H48.6143V15.2224Z" fill="#F7578C"/>
</g>
<mask id="mask11" mask-type="alpha" maskUnits="userSpaceOnUse" x="48" y="8" width="16" height="16">
<path d="M48.9771 15.1215C48.9771 15.1737 48.9814 15.2248 48.9826 15.2769L48.9705 21.9044C48.969 21.9357 48.9733 21.9664 48.9733 21.998C48.9733 23.0602 49.8287 23.9212 50.8841 23.9212C51.9393 23.9212 52.7947 23.0602 52.7947 21.998C52.7947 21.9713 52.788 21.9465 52.787 21.9201H52.7927V15.2388H52.7923V15.0607C52.7923 13.2797 54.2399 11.8226 56.0093 11.8226C57.7785 11.8226 59.226 13.2797 59.226 15.0607V19.515C59.226 19.5251 59.2246 19.535 59.2246 19.5451V21.384C59.2252 21.3835 59.2257 21.3831 59.2265 21.3828V21.9201H59.2389C59.2376 21.9485 59.2304 21.9752 59.2304 22.004C59.2304 23.0663 60.0859 23.9273 61.1412 23.9273C62.1964 23.9273 63.0519 23.0663 63.0519 22.004C63.0519 21.952 63.0406 21.9031 63.0366 21.852V15.2388H63.0084C63.0091 15.1995 63.0126 15.1609 63.0126 15.1215C63.0126 11.22 59.8706 8.05737 55.9949 8.05737C52.1191 8.05737 48.9771 11.22 48.9771 15.1215Z" fill="white"/>
</mask>
<g mask="url(#mask11)">
<path fill-rule="evenodd" clip-rule="evenodd" d="M48.5996 24.2999H63.4201V7.68384H48.5996V24.2999Z" fill="#F7578C"/>
</g>
<mask id="mask12" mask-type="alpha" maskUnits="userSpaceOnUse" x="48" y="8" width="5" height="16">
<path d="M48.9771 15.1201C48.9771 15.1725 48.9814 15.2235 48.9826 15.2756L48.9705 21.9031C48.969 21.9344 48.9733 21.965 48.9733 21.9966C48.9733 23.0588 49.8289 23.92 50.8842 23.92C51.9394 23.92 52.7948 23.0588 52.7948 21.9966C52.7948 21.9699 52.7882 21.9451 52.7871 21.9187H52.7928V15.2376H52.7924V15.0593C52.7924 14.9376 52.8005 14.818 52.8138 14.6995V8.8291C50.5384 9.99742 48.9771 12.3728 48.9771 15.1201Z" fill="white"/>
</mask>
<g mask="url(#mask12)">
<path fill-rule="evenodd" clip-rule="evenodd" d="M48.5996 24.2947H53.1819V8.45776H48.5996V24.2947Z" fill="#C41043"/>
</g>
<mask id="mask13" mask-type="alpha" maskUnits="userSpaceOnUse" x="66" y="16" width="16" height="8">
<path d="M79.5324 17.0035C79.0752 17.1268 78.7075 17.4057 78.4506 17.7598C77.8465 18.8123 76.8478 19.6325 75.592 19.9712C73.5631 20.5185 71.489 19.6424 70.4011 17.9513L66.6167 18.9721C67.8573 21.9931 70.8939 23.9153 74.2381 23.9228H74.2773C75.0358 23.9211 75.8101 23.8209 76.5823 23.6127C78.8465 23.0018 80.6568 21.5751 81.7661 19.7667C81.9126 19.4898 81.9973 19.1808 81.9998 18.8616V18.8327C81.9986 18.68 81.9785 18.5251 81.9373 18.3704C81.7066 17.5038 80.9186 16.9342 80.053 16.9341C79.8813 16.9341 79.7065 16.9565 79.5324 17.0035Z" fill="white"/>
</mask>
<g mask="url(#mask13)">
<path fill-rule="evenodd" clip-rule="evenodd" d="M66.2471 24.2976H82.3689V16.5627H66.2471V24.2976Z" fill="#5EC1FF"/>
</g>
<path fill-rule="evenodd" clip-rule="evenodd" d="M69.3398 14.8935L70.1699 18.0113L78.6391 15.7271L77.8091 12.6094L69.3398 14.8935Z" fill="#58C2FF"/>
<mask id="mask14" mask-type="alpha" maskUnits="userSpaceOnUse" x="66" y="7" width="15" height="12">
<path d="M72.0127 8.15597C67.7227 9.31304 65.1768 13.7517 66.3263 18.0699C66.4094 18.3823 66.5143 18.6826 66.6303 18.9759L70.4073 17.9572C70.2598 17.6791 70.1382 17.3822 70.0536 17.0647C69.4558 14.8185 70.7799 12.5097 73.0113 11.9079C74.4353 11.5238 75.8825 11.9302 76.9004 12.8565L80.9571 11.7624C79.5048 9.36278 76.8949 7.87842 74.0964 7.87842C73.4084 7.87842 72.7091 7.96816 72.0127 8.15597Z" fill="white"/>
</mask>
<g mask="url(#mask14)">
<path fill-rule="evenodd" clip-rule="evenodd" d="M65.6816 19.347H81.3272V7.50342H65.6816V19.347Z" fill="#5EC1FF"/>
</g>
<mask id="mask15" mask-type="alpha" maskUnits="userSpaceOnUse" x="66" y="14" width="5" height="5">
<path d="M66.0541 15.7801C66.0364 16.5346 66.1187 17.3033 66.3224 18.0691C66.405 18.3794 66.5089 18.6777 66.624 18.9693L70.4003 17.9507C70.2543 17.6742 70.1339 17.3791 70.0499 17.0637C69.8336 16.2511 69.8719 15.4313 70.1107 14.686L66.0541 15.7801Z" fill="white"/>
</mask>
<g mask="url(#mask15)">
<path fill-rule="evenodd" clip-rule="evenodd" d="M65.6816 19.3431H70.769V14.3137H65.6816V19.3431Z" fill="#4B5FFA"/>
</g>
<mask id="mask16" mask-type="alpha" maskUnits="userSpaceOnUse" x="76" y="11" width="6" height="5">
<path d="M76.9023 12.8562C77.4793 13.3814 77.9197 14.0719 78.136 14.8847C78.22 15.2001 78.2623 15.5162 78.2732 15.8291L79.2164 15.5749C79.228 15.5703 79.2385 15.568 79.2489 15.566L79.3134 15.5486C80.7105 15.1531 81.5363 13.7 81.1594 12.2851C81.1124 12.1081 81.0484 11.9401 80.9703 11.7822C80.9664 11.7757 80.9629 11.7685 80.959 11.762L76.9023 12.8562Z" fill="white"/>
</mask>
<g mask="url(#mask16)">
<path fill-rule="evenodd" clip-rule="evenodd" d="M76.5317 16.2005H81.6187V11.3872H76.5317V16.2005Z" fill="#4B5FFA"/>
</g>
</svg>
