<?xml version="1.0" encoding="UTF-8"?>
<svg version="1.1" viewBox="0 0 1761 511" xmlns="http://www.w3.org/2000/svg" xmlns:xlink="http://www.w3.org/1999/xlink">
<title>Page 1</title>
<desc>Created with Sketch.</desc>
<defs>
<path id="q" d="m314.56 7.814c-2.657 1.705-5.144 3.668-7.433 5.952-2.245 2.238-3.97 4.661-6.367 7.105-100.18 93.134-188.02 31.767-218.95 4.272-1.821-1.846-3.451-3.585-5.307-5.434-2.084-2.078-4.333-3.89-6.691-5.472-17.369-11.623-41.061-9.802-56.384 5.472-16.84 16.781-17.348 43.613-1.626 61.065 0.433 0.604 0.937 1.091 1.437 1.588 189.06 186.26 357.94-5.611 357.94-5.611 17.419-17.356 16.439-45.628-0.978-62.985-8.703-8.673-20.104-13.005-31.508-13.005-8.403 0-16.807 2.351-24.134 7.053z"/>
<path id="f" d="m13.789 87.497c-17.416 17.356-17.416 45.502 0 62.858 15.115 15.064 38.371 17.034 55.642 5.953 2.657-1.705 5.144-3.669 7.433-5.953 2.245-2.237 4.695-4.351 7.091-6.796 100.18-93.132 186.97-31.912 217.89-4.417 1.822 1.85 3.783 3.422 5.639 5.271 2.084 2.078 4.333 3.89 6.69 5.471 17.37 11.624 41.061 9.802 56.384-5.471 16.841-16.781 17.348-43.613 1.627-61.065-0.433-0.604-0.937-1.091-1.438-1.587-61.748-60.832-121.25-81.316-173.37-81.32-107.46-8e-3 -183.59 87.056-183.59 87.056z"/>
<path id="c" d="m46.986 0.775c-12.572 0-25.119 4.961-34.336 14.774-17.617 18.759-16.624 48.643 2.199 66.2 36.553 43.246 38.542 54.448 133.74 130.35 116.28 92.699 124.9 105.91 154.8 138.78 18.87 17.604 48.763 16.618 66.424-2.192 17.663-18.805 16.673-48.596-2.2-66.196-45.592-46.23-47.142-55.068-145.37-130.31-1.28-0.983-2.629-2.034-3.86-3.074-104.1-87.604-96.611-87.364-139.31-135.75-9.024-8.415-20.565-12.582-32.085-12.582h-4e-3z"/>
<path id="b" d="m43.642 7.123c-3e-3 -3e-3 -3e-3 -6e-3 -3e-3 -6e-3 -0.015 6e-3 -0.024 0.018-0.038 0.031-2.616 1.679-5.099 3.643-7.391 5.927-2.246 2.238-3.971 4.661-6.365 7.105-10.968 10.193-19.208 16.67-29.82 23.411l33.367 35.287c18.676 17.419 48.105 16.572 65.83-1.674 0.684-0.736 1.042-1.143 1.042-1.143 0.22-0.219 0.356-0.481 0.569-0.704 10.146-11.613 13.649-26.963 10.437-41.114-0.035-0.127-0.084-0.251-0.118-0.377-0.53-2.235-1.324-4.405-2.178-6.553-2.264-5.172-5.471-10.036-9.69-14.238-8.703-8.672-20.106-13.005-31.51-13.006-8.403 0-16.805 2.351-24.132 7.054z"/>
<path id="a" d="m13.062 15.192c-0.161 0.18-0.272 0.305-0.272 0.305-0.564 0.559-0.95 1.218-1.476 1.801-9.721 11.389-13.132 26.231-10.2 40.037 0.328 1.354 0.735 2.687 1.193 4.01 0.282 0.916 0.567 1.822 0.903 2.718 2.175 5.192 5.343 10.071 9.58 14.293 15.115 15.064 38.37 17.034 55.641 5.953 2.657-1.707 5.145-3.671 7.433-5.953 2.245-2.237 4.695-4.351 7.092-6.796 10.794-10.037 16.878-15.193 27.311-21.882l-31.192-36.32c-9.012-8.405-20.531-12.561-32.03-12.561-12.408-1e-3 -24.792 4.837-33.983 14.395z"/>
<path id="p" d="m0.973 150.86c0 1.109 0.093 2.198 0.118 3.304v140.86c-0.032 0.665-0.198 1.29-0.198 1.963 0 22.572 18.36 40.87 41.012 40.87 22.649 0 41.009-18.298 41.009-40.87 0-0.568-0.145-1.094-0.166-1.655h0.123v-141.98h-9e-3v-3.785c0-37.846 31.072-68.808 69.046-68.808 37.976 0 69.044 30.962 69.044 68.808v94.653c0 0.217-0.03 0.427-0.03 0.642v39.076c0.012-9e-3 0.024-0.018 0.04-0.025v11.418h0.265c-0.027 0.604-0.182 1.171-0.182 1.784 0 22.572 18.363 40.869 41.012 40.869 22.65 0 41.013-18.297 41.013-40.869 0-1.106-0.241-2.145-0.328-3.23v-140.53h-0.607c0.017-0.835 0.09-1.654 0.09-2.493 0-82.908-67.438-150.11-150.62-150.11-83.188 0-150.63 67.205-150.63 150.11z"/>
<path id="o" d="m0.848 41.812v426.16c0 22.6 18.554 41.095 41.235 41.095s41.235-18.495 41.235-41.095v-426.16c0-22.604-18.554-41.095-41.235-41.095s-41.235 18.491-41.235 41.095z"/>
<path id="n" d="m0.973 133.85c0 1.113 0.093 2.202 0.117 3.305v140.86c-0.031 0.662-0.198 1.288-0.198 1.96 0 22.572 18.363 40.873 41.012 40.873 22.65 0 41.01-18.301 41.01-40.873 0-0.568-0.143-1.094-0.167-1.655l0.124-141.98-0.01-3.786c0-2.586 0.177-5.132 0.458-7.647v-124.75c-48.835 24.826-82.346 75.303-82.346 133.68z"/>
<path id="m" d="m0.165 42.102v3.344c0 22.076 18.799 40.811 42.293 40.811 22.154 0 40.95-18.735 40.95-40.811v-3.344c0-23.418-18.796-41.481-40.95-41.481-23.494 0-42.293 18.063-42.293 41.481z"/>
<path id="l" d="m0.165 40.817v258.24c0 22.745 18.799 41.48 42.293 41.48 22.154 0 40.95-18.735 40.95-41.48v-258.24c0-22.749-18.796-40.808-40.95-40.808-23.494 0-42.293 18.059-42.293 40.808z"/>
<path id="k" d="m0.933 41.013l-0.17 114.21c2.777-33.397 18.668-66.762 40.004-91.461 12.106-14.013 26.306-26.222 42.219-35.938-5.818-15.794-21.255-26.949-39.507-26.949-23.398 0-42.546 18.063-42.546 40.139z"/>
<path id="j" d="m0.615 151.04c0 1.11 0.093 2.197 0.118 3.304l-0.258 140.84c-0.033 0.666 0.06 1.317 0.06 1.988 0 22.573 18.36 40.869 41.012 40.869 22.649 0 41.009-18.296 41.009-40.869 0-0.567-0.145-1.094-0.166-1.655h0.123v-141.98h-9e-3v-3.785c0-37.845 31.071-68.809 69.047-68.809 37.975 0 69.044 30.964 69.044 68.809v94.655c0 0.216-0.032 0.425-0.032 0.64v39.077c0.013-0.01 0.025-0.019 0.041-0.026v11.418h0.266c-0.028 0.604-0.182 1.171-0.182 1.784 0 22.573 18.362 40.87 41.012 40.87s41.012-18.297 41.012-40.87c0-1.106-0.242-2.145-0.328-3.231v-140.53h-0.606c0.015-0.835 0.089-1.655 0.089-2.493 0-82.907-67.438-150.11-150.62-150.11-83.188 0-150.63 67.206-150.63 150.11z"/>
<path id="i" d="m0.615 134.04c0 1.114 0.093 2.198 0.118 3.305l-0.258 140.84c-0.033 0.665 0.06 1.316 0.06 1.987 0 22.573 18.363 40.874 41.012 40.874s41.009-18.301 41.009-40.874c0-0.566-0.142-1.093-0.166-1.654h0.123v-141.98h-9e-3v-3.788c0-2.586 0.173-5.128 0.458-7.645v-124.75c-48.835 24.827-82.347 75.304-82.347 133.68z"/>
<path id="h" d="m277.45 2.024c-9.815 2.62-17.706 8.546-23.22 16.071-12.967 22.366-34.403 39.796-61.355 46.994-43.548 11.63-88.065-6.987-111.42-42.923l-81.227 21.692c26.628 64.197 91.805 105.04 163.58 105.2h0.84c16.282-0.036 32.9-2.165 49.475-6.591 48.598-12.981 87.452-43.299 111.26-81.727 3.144-5.885 4.962-12.451 5.016-19.234v-0.614c-0.026-3.245-0.457-6.536-1.341-9.824-4.951-18.415-21.864-30.52-40.443-30.522-3.686 0-7.437 0.477-11.174 1.475z"/>
<path id="g" d="m128.05 6.021c-92.08 24.588-146.72 118.91-122.05 210.67 1.785 6.64 4.036 13.021 6.526 19.254l81.067-21.648c-3.165-5.909-5.775-12.218-7.591-18.966-12.832-47.731 15.589-96.794 63.483-109.58 30.564-8.162 61.626 0.475 83.473 20.159l87.071-23.25c-31.171-50.993-87.188-82.536-147.25-82.536-14.767 0-29.777 1.907-44.724 5.898z"/>
<path id="e" d="m0.171 24.051c-0.381 16.032 1.386 32.368 5.759 48.64 1.772 6.594 4.002 12.934 6.473 19.13l81.051-21.645c-3.134-5.875-5.719-12.147-7.522-18.849-4.643-17.267-3.82-34.689 1.305-50.526l-87.066 23.25z"/>
<path id="d" d="m0.984 23.897c12.384 11.161 21.836 25.835 26.479 43.107 1.803 6.701 2.709 13.42 2.944 20.069l20.244-5.402c0.249-0.099 0.474-0.146 0.698-0.189l1.384-0.37c29.985-8.405 47.709-39.283 39.62-69.351-1.009-3.761-2.381-7.33-4.059-10.686-0.082-0.139-0.157-0.291-0.241-0.43l-87.069 23.252z"/>
</defs>
<g fill="none" fill-rule="evenodd">
<g transform="translate(-207 -361)">
<g transform="translate(207 360)">
<g transform="translate(0 347.45)">
<mask id="ac" fill="white">
<use xlink:href="#q"/>
</mask>
<polygon points="-7.531 171.64 391.7 171.64 391.7 -7.168 -7.531 -7.168" fill="#FAD668" mask="url(#ac)"/>
</g>
<g transform="translate(2 3.449)">
<mask id="t" fill="white">
<use xlink:href="#f"/>
</mask>
<polygon points="-7.201 171.29 391.53 171.29 391.53 -7.487 -7.201 -7.487" fill="#36F0C7" mask="url(#t)"/>
</g>
<g transform="translate(3 75.449)">
<mask id="s" fill="white">
<use xlink:href="#c"/>
</mask>
<polygon points="-7.87 371.39 390.37 371.39 390.37 -7.153 -7.87 -7.153" fill="#58C2FF" mask="url(#s)"/>
</g>
<g transform="translate(273 347.45)">
<mask id="r" fill="white">
<use xlink:href="#b"/>
</mask>
<polygon points="-7.903 99.36 120.35 99.36 120.35 -7.859 -7.903 -7.859" fill="#5465FC" mask="url(#r)"/>
</g>
<g transform="translate(3 75.449)">
<mask id="ah" fill="white">
<use xlink:href="#a"/>
</mask>
<polygon points="-7.831 99.29 118.2 99.29 118.2 -7.132 -7.831 -7.132" fill="#FF3C87" mask="url(#ah)"/>
</g>
<g transform="translate(478 171.45)">
<mask id="ag" fill="white">
<use xlink:href="#p"/>
</mask>
<polygon points="-7.035 345.91 311 345.91 311 -7.185 -7.035 -7.185" fill="#58C2FF" mask="url(#ag)"/>
</g>
<g transform="translate(478 .449)">
<mask id="af" fill="white">
<use xlink:href="#o"/>
</mask>
<polygon points="-7.08 517 91.246 517 91.246 -7.211 -7.08 -7.211" fill="#58C2FF" mask="url(#af)"/>
</g>
<g transform="translate(478 188.45)">
<mask id="ae" fill="white">
<use xlink:href="#n"/>
</mask>
<polygon points="-7.036 328.78 91.247 328.78 91.247 -7.758 -7.036 -7.758" fill="#5465FC" mask="url(#ae)"/>
</g>
<g transform="translate(874 12.449)">
<mask id="ad" fill="white">
<use xlink:href="#m"/>
</mask>
<polygon points="-7.764 94.185 91.336 94.185 91.336 -7.306 -7.764 -7.306" fill="#FAD668" mask="url(#ad)"/>
</g>
<g transform="translate(874 169.45)">
<mask id="ab" fill="white">
<use xlink:href="#l"/>
</mask>
<polygon points="-7.764 348.46 91.336 348.46 91.336 -7.919 -7.764 -7.919" fill="#FAD668" mask="url(#ab)"/>
</g>
<g transform="translate(1051 161.45)">
<mask id="aa" fill="white">
<use xlink:href="#k"/>
</mask>
<polygon points="-7.165 163.15 90.914 163.15 90.914 -7.054 -7.165 -7.054" fill="#FF3C87" mask="url(#aa)"/>
</g>
<g transform="translate(1051 171.45)">
<mask id="z" fill="white">
<use xlink:href="#j"/>
</mask>
<polygon points="-7.46 346.1 310.64 346.1 310.64 -6.998 -7.46 -6.998" fill="#FF3C87" mask="url(#z)"/>
</g>
<g transform="translate(1051 188.45)">
<mask id="y" fill="white">
<use xlink:href="#i"/>
</mask>
<polygon points="-7.46 328.97 90.89 328.97 90.89 -7.57 -7.46 -7.57" fill="#C60143" mask="url(#y)"/>
</g>
<g transform="translate(1430 360.45)">
<mask id="x" fill="white">
<use xlink:href="#h"/>
</mask>
<polygon points="-7.699 156.99 338.33 156.99 338.33 -7.379 -7.699 -7.379" fill="#58C2FF" mask="url(#x)"/>
</g>
<polygon points="1488.7 317.67 1506.5 383.93 1688.3 335.39 1670.5 269.14" fill="#58C2FF"/>
<g transform="translate(1418 168.45)">
<mask id="w" fill="white">
<use xlink:href="#g"/>
</mask>
<polygon points="-7.856 243.87 327.95 243.87 327.95 -7.805 -7.856 -7.805" fill="#58C2FF" mask="url(#w)"/>
</g>
<g transform="translate(1418 312.45)">
<mask id="v" fill="white">
<use xlink:href="#e"/>
</mask>
<polygon points="-7.807 99.749 101.38 99.749 101.38 -7.127 -7.807 -7.127" fill="#5465FC" mask="url(#v)"/>
</g>
<g transform="translate(1650 250.45)">
<mask id="u" fill="white">
<use xlink:href="#d"/>
</mask>
<polygon points="-6.943 95.001 102.24 95.001 102.24 -7.282 -6.943 -7.282" fill="#5465FC" mask="url(#u)"/>
</g>
</g>
</g>
</g>
</svg>
