<svg width="256" height="233" viewBox="0 0 256 233" fill="none" xmlns="http://www.w3.org/2000/svg">
<path d="M130.873 174.765C162.866 174.765 188.802 148.952 188.802 117.11C188.802 85.2684 162.866 59.4556 130.873 59.4556C98.8805 59.4556 72.9451 85.2684 72.9451 117.11C72.9451 148.952 98.8805 174.765 130.873 174.765Z" fill="#11FAC7" stroke="#11FAC7" stroke-width="10"/>
<path d="M103.552 114.631C101.214 112.692 97.7468 113.015 95.8076 115.354C93.8684 117.692 94.1918 121.159 96.5298 123.098L103.552 114.631ZM123.306 138.161L119.795 142.394C122.083 144.292 125.466 144.028 127.432 141.798L123.306 138.161ZM160.779 103.978C162.788 101.699 162.569 98.2238 160.291 96.2149C158.012 94.206 154.537 94.4245 152.528 96.7029L160.779 103.978ZM96.5298 123.098L119.795 142.394L126.818 133.927L103.552 114.631L96.5298 123.098ZM127.432 141.798L160.779 103.978L152.528 96.7029L119.181 134.523L127.432 141.798Z" fill="white"/>
<path d="M248.503 137.249C252.643 137.249 256 133.908 256 129.787C256 125.667 252.643 122.326 248.503 122.326C244.363 122.326 241.007 125.667 241.007 129.787C241.007 133.908 244.363 137.249 248.503 137.249Z" fill="#FFD947"/>
<path d="M7.49661 113.859C11.6369 113.859 14.9932 110.519 14.9932 106.398C14.9932 102.277 11.6369 98.9368 7.49661 98.9368C3.35635 98.9368 0 102.277 0 106.398C0 110.519 3.35635 113.859 7.49661 113.859Z" fill="#F7578C"/>
<path d="M136.56 14.9224C140.701 14.9224 144.057 11.5819 144.057 7.46119C144.057 3.34049 140.701 0 136.56 0C132.42 0 129.064 3.34049 129.064 7.46119C129.064 11.5819 132.42 14.9224 136.56 14.9224Z" fill="#F7578C"/>
<path d="M126 233C130.418 233 134 229.418 134 225C134 220.582 130.418 217 126 217C121.582 217 118 220.582 118 225C118 229.418 121.582 233 126 233Z" fill="#FFD947"/>
<path d="M39.4635 39.6619L29.1604 29.4075" stroke="#5EC1FF" stroke-width="9" stroke-linecap="round"/>
<path d="M220.378 200.029L209.388 189.092" stroke="#5EC1FF" stroke-width="9" stroke-linecap="round"/>
<path d="M33.0593 205.398L45.0165 193.497" stroke="#5EC1FF" stroke-width="9" stroke-linecap="round"/>
<path d="M218.694 48.0479L230.758 35.9922" stroke="#5EC1FF" stroke-width="9" stroke-linecap="round"/>
</svg>
